<?xml version="1.0" standalone="no"?>
<!DOCTYPE svg PUBLIC "-//W3C//DTD SVG 20010904//EN"
 "http://www.w3.org/TR/2001/REC-SVG-20010904/DTD/svg10.dtd">
<svg version="1.0" xmlns="http://www.w3.org/2000/svg"
 width="1506.000000pt" height="1506.000000pt" viewBox="0 0 1506.000000 1506.000000"
 preserveAspectRatio="xMidYMid meet">
<metadata>
Created by potrace 1.11, written by Peter Selinger 2001-2013
</metadata>
<g transform="translate(0.000000,1506.000000) scale(0.100000,-0.100000)"
fill="#000000" stroke="none">
<path d="M8935 15053 c-170 -2 -1095 -4 -2055 -5 l-1745 -3 -60 -24 c-123 -48
-206 -142 -263 -293 -17 -46 -68 -182 -113 -303 -45 -121 -93 -249 -106 -285
-14 -36 -35 -94 -48 -130 -13 -36 -45 -119 -70 -185 -26 -66 -50 -131 -55
-145 -4 -14 -45 -122 -90 -240 -45 -118 -90 -237 -100 -265 -25 -72 -129 -346
-140 -370 -7 -16 -183 -484 -310 -825 -92 -246 -142 -377 -150 -395 -10 -22
-84 -222 -153 -415 -25 -69 -84 -228 -132 -355 -162 -430 -286 -760 -327 -865
-22 -58 -51 -132 -63 -165 -12 -33 -79 -213 -148 -400 -69 -187 -158 -421
-196 -520 -39 -98 -69 -180 -68 -181 1 -1 53 -18 115 -38 164 -53 487 -194
562 -245 36 -24 70 -44 75 -44 6 0 35 17 65 38 58 39 163 91 308 151 48 20
105 44 127 54 71 32 407 171 530 220 66 26 179 75 251 108 260 119 530 205
839 267 17 3 39 8 50 10 86 17 337 50 460 60 39 4 89 8 112 11 l43 4 -26 -67
c-14 -38 -29 -79 -34 -93 -4 -14 -51 -140 -105 -280 -419 -1102 -607 -1614
-603 -1643 2 -12 26 -29 71 -48 88 -37 136 -58 166 -73 32 -15 52 -11 149 35
46 21 86 39 88 39 5 0 168 69 249 105 46 20 332 138 505 207 41 17 104 45 140
63 205 102 637 247 863 289 12 2 60 11 106 20 93 18 114 20 108 9 -4 -7 -27
-124 -83 -418 -2 -11 -8 -42 -14 -70 -6 -27 -13 -63 -16 -80 -4 -25 -19 -101
-38 -200 -2 -11 -11 -50 -20 -86 -8 -37 -17 -78 -20 -90 -50 -238 -183 -673
-296 -974 -158 -418 -220 -551 -386 -828 -30 -49 -54 -91 -54 -92 0 -4 -128
-208 -138 -220 -5 -6 -11 -15 -13 -21 -11 -27 -370 -596 -510 -809 -58 -88
-126 -191 -151 -230 -24 -38 -69 -99 -99 -135 -30 -36 -94 -117 -141 -180
-137 -182 -201 -250 -364 -386 -135 -113 -248 -187 -374 -247 -118 -56 -463
-185 -510 -191 -31 -4 -84 -9 -230 -21 -286 -24 -802 -25 -950 -1 -14 3 -43 7
-65 10 -179 23 -329 87 -572 243 -170 109 -206 140 -314 264 -40 48 -124 140
-185 205 -110 119 -290 341 -483 594 -74 97 -205 307 -473 755 -205 341 -373
622 -375 624 -6 8 -11 -5 -17 -44 -4 -22 -11 -65 -16 -95 -5 -30 -12 -73 -15
-95 -3 -22 -10 -62 -15 -90 -6 -27 -12 -66 -14 -85 -3 -19 -10 -62 -15 -95 -5
-33 -13 -80 -16 -105 -4 -24 -8 -47 -10 -50 -1 -3 -6 -27 -9 -55 -4 -27 -8
-61 -11 -75 -3 -14 -7 -41 -10 -60 -3 -19 -7 -46 -10 -60 -3 -14 -7 -41 -10
-60 -3 -19 -7 -46 -10 -60 -10 -56 -32 -202 -40 -270 -4 -30 -8 -57 -10 -60
-1 -3 -6 -32 -9 -65 -4 -33 -11 -87 -16 -120 -5 -33 -12 -80 -15 -105 -3 -25
-8 -52 -10 -60 -2 -8 -6 -40 -10 -71 -3 -31 -7 -65 -9 -75 -2 -11 -7 -44 -11
-74 -4 -30 -9 -62 -10 -71 -2 -9 -6 -40 -10 -69 -4 -29 -8 -60 -10 -69 -1 -9
-6 -45 -11 -81 -4 -36 -8 -67 -9 -70 -1 -3 -5 -32 -9 -65 -4 -33 -11 -85 -16
-115 -5 -30 -12 -80 -15 -110 -3 -30 -7 -62 -10 -70 -2 -8 -6 -42 -10 -75 -3
-33 -8 -67 -10 -75 -2 -8 -6 -40 -10 -70 -3 -30 -7 -66 -10 -80 -15 -96 -37
-316 -51 -535 -3 -49 -7 -100 -9 -113 -3 -19 1 -22 33 -23 20 -1 48 -2 62 -4
14 -1 72 -6 130 -9 58 -4 125 -8 150 -11 25 -2 92 -6 150 -10 58 -3 125 -8
150 -11 65 -6 140 -14 180 -19 19 -2 60 -7 90 -10 30 -3 71 -8 90 -10 32 -4
123 -12 225 -20 78 -6 180 -16 215 -20 19 -3 64 -7 100 -10 64 -5 141 -12 210
-20 19 -2 69 -7 110 -10 41 -3 95 -8 120 -10 102 -11 128 -14 195 -20 39 -4
77 -8 85 -10 8 -2 49 -7 90 -10 41 -4 95 -8 120 -10 25 -2 86 -7 135 -11 50
-4 97 -8 105 -10 8 -1 28 -3 43 -3 31 -1 31 2 12 -121 -8 -56 -15 -108 -21
-155 -3 -27 -8 -59 -10 -70 -2 -11 -6 -42 -9 -70 -4 -27 -8 -61 -10 -75 -2
-14 -6 -43 -9 -65 -3 -22 -12 -87 -20 -145 -8 -58 -17 -126 -20 -153 -10 -83
-17 -140 -25 -199 -8 -64 -4 -78 24 -76 11 0 49 -2 85 -5 36 -4 97 -9 135 -12
39 -3 115 -11 170 -16 55 -6 111 -12 125 -14 14 -1 50 -5 80 -8 30 -4 78 -9
105 -11 28 -3 75 -8 105 -11 30 -3 82 -7 115 -10 137 -11 201 -17 225 -20 14
-2 57 -7 95 -10 39 -3 95 -8 125 -11 110 -11 136 -13 215 -19 44 -4 91 -8 105
-10 14 -2 56 -7 95 -10 38 -4 76 -8 85 -10 8 -1 49 -6 90 -9 41 -4 91 -9 110
-11 19 -3 64 -7 100 -9 162 -13 217 -18 240 -21 14 -2 61 -7 105 -10 44 -3 96
-8 115 -10 43 -5 471 -5 705 0 94 2 305 6 470 10 377 7 600 14 645 19 19 2 76
7 125 10 50 4 108 9 130 11 22 2 72 7 110 10 108 9 168 15 195 20 14 3 41 7
60 10 19 3 87 17 150 30 63 13 149 26 190 30 41 4 93 10 115 15 22 5 56 12 75
15 19 3 51 10 70 15 19 5 53 11 75 15 96 14 555 137 648 174 40 16 137 50 217
76 182 60 255 89 403 159 65 31 120 56 123 56 3 0 17 9 31 19 13 11 50 27 81
36 58 17 108 42 222 111 36 22 83 48 105 58 97 44 217 106 269 140 31 20 59
36 61 36 21 0 498 343 600 431 17 15 75 64 130 109 132 110 143 120 315 295
238 241 330 347 445 515 32 47 91 128 130 180 59 79 171 243 222 325 97 158
244 445 372 728 17 38 31 70 31 72 0 3 14 35 31 72 17 38 40 91 51 118 10 28
25 64 33 81 69 149 177 461 263 759 105 363 113 397 127 580 3 39 8 95 11 125
10 109 12 446 3 515 -19 153 -73 447 -84 464 -2 4 -6 21 -9 37 -8 41 -58 194
-94 284 -59 149 -133 290 -220 421 -291 438 -675 804 -1127 1072 -144 85 -458
228 -556 252 -21 5 -31 22 -63 103 -101 257 -257 513 -476 782 -172 212 -444
473 -670 643 -543 409 -1193 652 -1850 692 -41 3 -92 7 -112 10 -62 8 -110 14
-173 20 -33 3 -80 8 -105 10 -142 14 -551 20 -777 11 -35 -1 -63 0 -63 3 0 4
9 20 19 37 19 31 19 31 97 28 106 -3 776 -13 1384 -19 272 -3 713 -7 980 -10
267 -3 724 -7 1015 -10 292 -3 737 -7 990 -10 756 -8 1529 -9 1550 -2 12 5 80
108 177 270 86 144 245 408 354 587 686 1133 778 1291 763 1305 -12 12 -76 15
-364 16 -527 3 -1407 2 -1993 0 l-523 -3 24 39 c24 36 316 516 378 621 9 15
62 104 119 197 56 94 111 184 120 200 10 17 70 117 134 223 64 106 116 195
116 197 0 3 12 24 27 48 52 83 283 488 283 497 0 6 4 10 9 10 5 0 11 8 13 18
5 16 -90 17 -1891 17 -1043 0 -2035 -1 -2206 -2z m-2890 -2848 c734 -8 1085
-13 1107 -14 11 -1 15 -7 13 -18 -2 -10 -111 -299 -240 -643 -130 -344 -251
-663 -269 -710 l-32 -85 -44 -6 c-25 -4 -65 -10 -90 -14 -82 -12 -104 -15
-155 -25 -27 -5 -68 -12 -90 -16 -22 -3 -69 -12 -105 -20 -36 -9 -75 -17 -86
-20 -47 -9 -435 -107 -519 -131 -49 -14 -100 -27 -112 -29 -31 -6 -310 -90
-363 -109 -25 -10 -58 -21 -75 -25 -16 -4 -64 -20 -105 -35 -41 -15 -82 -29
-90 -30 -8 -2 -62 -20 -119 -39 -58 -20 -108 -36 -111 -36 -4 0 36 107 88 238
82 206 418 1074 619 1599 65 168 67 172 97 175 17 2 42 2 56 1 14 -1 295 -5
625 -8z m863 -2939 c52 -5 133 -20 252 -48 34 -7 145 -71 212 -121 80 -59 174
-152 210 -207 74 -111 89 -142 104 -215 2 -11 6 -29 8 -40 21 -100 45 -229 43
-230 -1 -1 -29 -9 -62 -19 -33 -9 -271 -87 -528 -172 -586 -193 -860 -274
-876 -258 -2 2 17 61 43 131 84 229 167 447 188 498 11 28 24 59 29 70 19 48
179 458 210 537 l34 86 35 -3 c19 -2 63 -6 98 -9z m2246 -6588 c-69 -116 -275
-440 -399 -628 -56 -85 -124 -189 -150 -230 -27 -41 -76 -109 -110 -150 -34
-41 -102 -129 -152 -195 -98 -130 -107 -141 -221 -259 -93 -97 -284 -256 -395
-330 -85 -57 -259 -150 -337 -180 -25 -10 -56 -23 -70 -29 -14 -6 -27 -11 -30
-12 -3 0 -32 -11 -65 -24 -280 -108 -298 -113 -476 -127 -46 -3 -100 -8 -119
-9 -263 -26 -860 -26 -1040 0 -45 7 -146 23 -185 31 -53 9 -199 61 -294 104
-91 41 -337 189 -456 275 -75 55 -121 99 -212 205 -40 47 -106 121 -147 165
-41 44 -73 81 -72 83 4 3 157 7 641 17 154 3 306 7 338 10 31 3 83 7 115 10
31 3 89 7 127 10 193 15 396 35 405 40 3 2 30 6 60 10 30 4 58 9 61 11 3 2 21
6 40 9 19 3 68 12 109 20 41 8 102 16 135 20 33 3 71 8 85 11 14 3 39 7 57 10
18 2 62 11 98 19 37 9 85 18 108 22 85 11 569 144 684 186 65 24 181 65 258
90 184 60 272 97 490 202 61 29 121 57 135 61 44 12 112 46 205 102 50 30 140
78 200 107 61 28 141 70 179 93 37 23 71 42 75 43 3 0 78 49 166 109 178 120
169 115 159 98z"/>
</g>
</svg>
